<svg width="320" height="286" viewBox="0 0 320 286" fill="none" xmlns="http://www.w3.org/2000/svg">
<path opacity="0.2" d="M479.868 96.685L490.969 172.887C490.99 173.03 491 173.175 491 173.319V282C491 283.657 489.657 285 488 285H479.816H468.633H457.449H446.265H435.081H423.898H412.714H401.53H390.347H379.163H367.979H356.795H345.612H334.428H323.244H312.061H300.877H289.693H278.509H267.326H256.142H244.958H233.775H222.591H211.407H200.223H189.04H177.856H166.672H155.489H133.121H121.937H110.754H99.57H88.3863H77.2026H66.0189H54.8352H43.6514H32.4677H21.284H10.1003H-1.08339H-12.2671H-23.4508H-34.6345H-45.8182H-54C-55.6569 285 -57 283.657 -57 282V86.2257C-57 83.5208 -53.7018 82.1973 -51.8321 84.152L-50.2078 85.8502C-48.456 87.6815 -45.3633 86.6502 -45.0613 84.1341L-37.8034 23.6825C-37.3774 20.134 -32.2169 20.1707 -31.8414 23.7249L-23.4508 103.139L-13.2475 150.9C-12.7899 153.042 -10.2655 153.987 -8.51338 152.673L-2.0759 147.844C-1.44033 147.367 -1.01986 146.657 -0.90675 145.871L9.7076 72.0739C9.92962 70.5303 11.2973 69.4142 12.854 69.5062L20.1851 69.9395C20.8946 69.9814 21.5661 70.2738 22.0801 70.7647L29.1617 77.5276C30.7233 79.019 33.3018 78.4216 34.0485 76.3954L43.0758 51.8997C43.4338 50.9282 44.2676 50.2099 45.2815 49.9996L51.734 48.6613C53.4188 48.3119 55.0518 49.4482 55.3094 51.1496L64.3488 110.834C64.8079 113.865 68.9825 114.337 70.1062 111.484L76.9915 94.0031C77.131 93.649 77.3365 93.3247 77.5972 93.0475L84.0583 86.1757C85.7905 84.3334 88.8851 85.3291 89.2179 87.8358L96.1503 140.05C96.6194 143.584 101.761 143.496 102.11 139.949L108.877 71.0522C109.211 67.6449 114.075 67.3671 114.795 70.7141L121.937 103.893L140.334 230.228C140.838 233.69 145.853 233.634 146.28 230.162L154.869 160.323C155.147 158.058 157.754 156.921 159.604 158.258L162.504 160.355C164.366 161.702 166.988 160.541 167.243 158.257L176.195 78.1483C176.559 74.8912 181.136 74.4935 182.056 77.639L185.867 90.6635C186.731 93.6163 190.949 93.5103 191.664 90.5178L200.05 55.3969C200.164 54.92 200.393 54.4782 200.717 54.1104L207.087 46.8806C208.783 44.956 211.955 45.9092 212.309 48.4497L219.678 101.307C220.157 104.745 225.12 104.759 225.618 101.323L233.021 50.2588C233.354 47.9602 236.06 46.8958 237.87 48.3517L244.186 53.4329C244.688 53.8363 245.046 54.3904 245.208 55.0131L254.179 89.4001C254.9 92.1647 258.712 92.4516 259.838 89.826L262.589 83.4158C263.821 80.5453 268.073 81.234 268.336 84.3466L275.56 169.945C275.869 173.604 281.221 173.61 281.538 169.951L289.647 76.3935C289.678 76.0425 289.77 75.6996 289.919 75.3805L296.888 60.4939C298.127 57.8467 302.035 58.3542 302.557 61.2301L311.627 111.201C311.88 112.594 313.072 113.62 314.486 113.664L321.379 113.878C322.521 113.913 323.584 113.297 324.121 112.288L334.158 93.4184C334.336 93.0834 334.577 92.7852 334.866 92.5397L342.821 85.7897C344.265 84.5648 346.468 84.9669 347.386 86.6226L356.559 103.168C356.716 103.45 356.826 103.756 356.885 104.074L364.098 142.845C364.734 146.261 369.697 146.045 370.034 142.587L379.163 48.7533L387.034 3.18118C387.618 -0.199514 392.502 -0.111065 392.963 3.28855L401.493 66.1792C401.518 66.3627 401.56 66.5434 401.618 66.7192L410.871 94.6581C411.64 96.9804 414.716 97.4553 416.15 95.473L419.596 90.7077C421.17 88.531 424.592 89.3618 424.993 92.0181L434.661 156.062C434.897 157.629 436.311 158.742 437.89 158.603L443.903 158.074C445.287 157.952 446.407 156.895 446.608 155.519L457.322 82.2605C457.405 81.6958 457.647 81.1664 458.02 80.7344L465.411 72.1701C466.88 70.4681 469.63 70.927 470.467 73.0138L479.684 96.001C479.772 96.2209 479.833 96.4505 479.868 96.685Z" fill="url(#paint0_linear)" fill-opacity="0.12" stroke="url(#paint1_linear)"/>
<defs>
<linearGradient id="paint0_linear" x1="-57.0011" y1="146.241" x2="-0.587307" y2="145.964" gradientUnits="userSpaceOnUse">
<stop offset="0.9999" stop-color="#30475E"/>
<stop offset="1" stop-color="#70B2FF"/>
</linearGradient>
<linearGradient id="paint1_linear" x1="-57.0011" y1="117.422" x2="-0.588567" y2="117.422" gradientUnits="userSpaceOnUse">
<stop offset="0.9999" stop-color="#3D5C7E"/>
<stop offset="1" stop-color="#70B2FF"/>
</linearGradient>
</defs>
</svg>
