<svg width="23" height="23" viewBox="0 0 23 23" fill="none" xmlns="http://www.w3.org/2000/svg">
<path d="M21.5077 6.12886C20.524 4.44362 19.1897 3.10931 17.5044 2.12567C15.8192 1.14208 13.9787 0.650391 11.9828 0.650391C9.98713 0.650391 8.14657 1.14208 6.46134 2.12567C4.77585 3.10916 3.44154 4.44347 2.45795 6.12886C1.47412 7.81434 0.982422 9.65474 0.982422 11.6505C0.982422 13.8755 1.5887 15.8953 2.8014 17.7091C4.01406 19.5238 5.60392 20.8653 7.571 21.7342C7.53277 20.7125 7.59488 19.8675 7.75707 19.1991L9.17516 13.2117C8.93636 12.7437 8.81701 12.1617 8.81701 11.4643C8.81701 10.6528 9.02215 9.97486 9.43282 9.43044C9.8435 8.88612 10.3447 8.61402 10.9368 8.61402C11.4141 8.61402 11.7817 8.77154 12.0396 9.08659C12.2976 9.4018 12.4261 9.79802 12.4261 10.2756C12.4261 10.5714 12.371 10.932 12.2611 11.3569C12.1514 11.7819 12.0082 12.2736 11.8316 12.8323C11.655 13.3907 11.5283 13.8374 11.452 14.1713C11.3184 14.7537 11.4281 15.2526 11.7815 15.6682C12.1348 16.0835 12.6028 16.2915 13.1853 16.2915C14.207 16.2915 15.0448 15.7234 15.6991 14.5872C16.3532 13.4506 16.6801 12.0708 16.6801 10.4476C16.6801 9.19656 16.2766 8.17956 15.4696 7.3968C14.6626 6.61373 13.5383 6.22202 12.0963 6.22202C10.4829 6.22202 9.17697 6.7401 8.17913 7.77611C7.18125 8.81228 6.68233 10.0513 6.68233 11.4931C6.68233 12.3526 6.92584 13.0736 7.41277 13.6559C7.57506 13.8469 7.62764 14.0521 7.5703 14.2719C7.55118 14.3293 7.51306 14.4725 7.45571 14.7015C7.39862 14.9305 7.36024 15.0788 7.34128 15.1455C7.26498 15.4511 7.08342 15.5465 6.79696 15.4319C6.0618 15.1266 5.50309 14.5965 5.12126 13.8421C4.73928 13.0877 4.54824 12.2138 4.54824 11.221C4.54824 10.5812 4.65094 9.9415 4.85627 9.30181C5.06141 8.66187 5.38143 8.04371 5.81578 7.44686C6.25038 6.84987 6.77077 6.32225 7.37715 5.86412C7.98328 5.40584 8.72099 5.03826 9.58995 4.76133C10.4589 4.48441 11.3946 4.34595 12.3973 4.34595C13.7534 4.34595 14.9706 4.6467 16.0495 5.24826C17.1287 5.84987 17.9521 6.62797 18.5204 7.58292C19.0886 8.53791 19.3726 9.55968 19.3726 10.6482C19.3726 12.0805 19.1243 13.3695 18.628 14.5154C18.1315 15.6612 17.4296 16.5612 16.5223 17.2151C15.6151 17.8694 14.5839 18.1964 13.4282 18.1964C12.8459 18.1964 12.3016 18.0603 11.7953 17.7883C11.2894 17.5161 10.9408 17.194 10.7499 16.8215C10.3201 18.5114 10.0623 19.519 9.97629 19.8436C9.79488 20.5212 9.42254 21.3044 8.85906 22.1924C9.88082 22.4979 10.9216 22.6504 11.9815 22.6504C13.9772 22.6504 15.8178 22.1587 17.5031 21.175C19.1884 20.1916 20.5227 18.8573 21.5061 17.172C22.4897 15.4864 22.9814 13.6459 22.9814 11.6503C22.9819 9.65474 22.4909 7.81409 21.5077 6.12886Z" fill="white"/>
</svg>
