<svg width="21" height="17" viewBox="0 0 21 17" fill="none" xmlns="http://www.w3.org/2000/svg">
<path d="M20.9805 2.32414C20.2367 2.65039 19.4442 2.86664 18.618 2.97164C19.468 2.46414 20.1167 1.66664 20.4217 0.705391C19.6292 1.17789 18.7542 1.51164 17.8217 1.69789C17.0692 0.896641 15.9967 0.400391 14.8267 0.400391C12.5567 0.400391 10.7292 2.24289 10.7292 4.50164C10.7292 4.82664 10.7567 5.13914 10.8242 5.43664C7.41547 5.27039 4.39922 3.63664 2.37297 1.14789C2.01922 1.76164 1.81172 2.46414 1.81172 3.22039C1.81172 4.64039 2.54297 5.89914 3.63297 6.62789C2.97422 6.61539 2.32797 6.42414 1.78047 6.12289C1.78047 6.13539 1.78047 6.15164 1.78047 6.16789C1.78047 8.16039 3.20172 9.81539 5.06547 10.1966C4.73172 10.2879 4.36797 10.3316 3.99047 10.3316C3.72797 10.3316 3.46297 10.3166 3.21422 10.2616C3.74547 11.8854 5.25297 13.0791 7.04547 13.1179C5.65047 14.2091 3.87922 14.8666 1.96172 14.8666C1.62547 14.8666 1.30297 14.8516 0.980469 14.8104C2.79672 15.9816 4.94922 16.6504 7.27047 16.6504C14.8155 16.6504 18.9405 10.4004 18.9405 4.98289C18.9405 4.80164 18.9342 4.62664 18.9255 4.45289C19.7392 3.87539 20.423 3.15414 20.9805 2.32414Z" fill="white"/>
</svg>
