<svg width="32" height="32" viewBox="0 0 32 32" fill="none" xmlns="http://www.w3.org/2000/svg">
<path fill-rule="evenodd" clip-rule="evenodd" d="M5.3335 15.9998C5.3335 15.2635 5.93045 14.6665 6.66683 14.6665H25.3335C26.0699 14.6665 26.6668 15.2635 26.6668 15.9998C26.6668 16.7362 26.0699 17.3332 25.3335 17.3332H6.66683C5.93045 17.3332 5.3335 16.7362 5.3335 15.9998Z" fill="#FF5745"/>
<path fill-rule="evenodd" clip-rule="evenodd" d="M15.057 5.72402C15.5777 5.20332 16.4219 5.20332 16.9426 5.72402L21.6093 10.3907L26.276 15.0574C26.7967 15.5781 26.7967 16.4223 26.276 16.943L16.9426 26.2763C16.4219 26.797 15.5777 26.797 15.057 26.2763C14.5363 25.7556 14.5363 24.9114 15.057 24.3907L23.4476 16.0002L15.057 7.60964C14.5363 7.08894 14.5363 6.24472 15.057 5.72402Z" fill="#FF5745"/>
</svg>
