<svg width="21" height="21" viewBox="0 0 21 21" fill="none" xmlns="http://www.w3.org/2000/svg">
<g clip-path="url(#clip0)">
<path d="M20.8039 4.3877L14.7383 10.4142L20.8039 16.4407C20.9135 16.2116 20.98 15.9582 20.98 15.6877V5.14078C20.98 4.8702 20.9135 4.61688 20.8039 4.3877Z" fill="white"/>
<path d="M19.2218 3.38281H2.73746C2.46688 3.38281 2.21355 3.44934 1.98438 3.55898L9.73684 11.2724C10.4223 11.9579 11.537 11.9579 12.2225 11.2724L19.9749 3.55898C19.7457 3.44934 19.4924 3.38281 19.2218 3.38281Z" fill="white"/>
<path d="M1.15664 4.3877C1.04699 4.61688 0.980469 4.8702 0.980469 5.14078V15.6877C0.980469 15.9582 1.04699 16.2116 1.15664 16.4407L7.22223 10.4142L1.15664 4.3877Z" fill="white"/>
<path d="M13.9093 11.2427L13.051 12.101C11.9089 13.2431 10.0504 13.2431 8.90824 12.101L8.04996 11.2427L1.98438 17.2692C2.21355 17.3788 2.46688 17.4454 2.73746 17.4454H19.2218C19.4924 17.4454 19.7457 17.3788 19.9749 17.2692L13.9093 11.2427Z" fill="white"/>
</g>
<defs>
<clipPath id="clip0">
<rect width="20" height="20" fill="white" transform="translate(0.980469 0.414062)"/>
</clipPath>
</defs>
</svg>
